M48
; DRILL file {KiCad 8.0.6} date 2025-01-11T11:08:50-0500
; FORMAT={-:-/ absolute / inch / decimal}
; #@! TF.CreationDate,2025-01-11T11:08:50-05:00
; #@! TF.GenerationSoftware,Kicad,Pcbnew,8.0.6
; #@! TF.FileFunction,Plated,1,2,PTH
FMAT,2
INCH
; #@! TA.AperFunction,Plated,PTH,ViaDrill
T1C0.0118
%
G90
G05
T1
X3.911Y-2.92
X3.974Y-2.98
X4.012Y-1.545
X4.017Y-3.43
X4.057Y-1.69
X4.057Y-2.13
X4.057Y-2.31
X4.057Y-2.75
X4.102Y-3.186
X4.105Y-3.23
X4.127Y-3.268
X4.177Y-3.2
X4.202Y-2.988
X4.252Y-3.186
X4.302Y-3.186
X4.327Y-3.024
X4.327Y-3.268
X4.352Y-3.186
X4.427Y-3.198
X4.452Y-3.1209
X4.485Y-3.252
X4.497Y-1.69
X4.497Y-2.13
X4.497Y-2.31
X4.497Y-2.75
X4.497Y-2.945
X4.509Y-3.16
X4.542Y-1.545
X4.547Y-3.43
X4.58Y-3.04
X4.609Y-3.204
X4.6416Y-3.1
X4.642Y-3.16
M30
