%TF.GenerationSoftware,KiCad,Pcbnew,8.0.6*%
%TF.CreationDate,2025-01-11T11:08:49-05:00*%
%TF.ProjectId,RetroLite,52657472-6f4c-4697-9465-2e6b69636164,rev?*%
%TF.SameCoordinates,Original*%
%TF.FileFunction,Profile,NP*%
%FSLAX46Y46*%
G04 Gerber Fmt 4.6, Leading zero omitted, Abs format (unit mm)*
G04 Created by KiCad (PCBNEW 8.0.6) date 2025-01-11 11:08:49*
%MOMM*%
%LPD*%
G01*
G04 APERTURE LIST*
%TA.AperFunction,Profile*%
%ADD10C,0.050000*%
%TD*%
G04 APERTURE END LIST*
D10*
X113969801Y-70993000D02*
G75*
G02*
X113969801Y-73279000I-1J-1143000D01*
G01*
X103301799Y-73279000D02*
X113969801Y-73279000D01*
X103301799Y-57531000D02*
G75*
G02*
X103301799Y-55245000I1J1143000D01*
G01*
X113969801Y-39497000D02*
X103301799Y-39497000D01*
X101904800Y-53848002D02*
X101904800Y-43180000D01*
X117652800Y-53848001D02*
G75*
G02*
X115366800Y-53848001I-1143000J0D01*
G01*
X101904800Y-69596001D02*
X101904800Y-58927999D01*
X103301799Y-41783000D02*
X113969801Y-41783000D01*
X116255800Y-82042000D02*
X117779800Y-82042000D01*
X113969801Y-55245000D02*
G75*
G02*
X113969801Y-57531000I-1J-1143000D01*
G01*
X115747800Y-38354000D02*
G75*
G02*
X118795800Y-41402000I0J-3048000D01*
G01*
X99618800Y-58927999D02*
G75*
G02*
X101904800Y-58927999I1143000J0D01*
G01*
X113969801Y-70993000D02*
X103301799Y-70993000D01*
X115366800Y-43179999D02*
X115366800Y-53848001D01*
X101904800Y-69596001D02*
G75*
G02*
X99618800Y-69596001I-1143000J0D01*
G01*
X98475800Y-41402000D02*
X98475800Y-81026000D01*
X114985800Y-91186000D02*
X102285800Y-91186000D01*
X99618800Y-43180000D02*
X99618800Y-53848002D01*
X115366800Y-43179999D02*
G75*
G02*
X117652800Y-43179999I1143000J0D01*
G01*
X101015800Y-89916000D02*
X101015800Y-82042000D01*
X101015800Y-82042000D02*
X99491800Y-82042000D01*
X101904800Y-53848002D02*
G75*
G02*
X99618800Y-53848002I-1143000J0D01*
G01*
X118795800Y-81026000D02*
X117779800Y-82042000D01*
X117652800Y-69596000D02*
X117652800Y-58927998D01*
X117652800Y-69596000D02*
G75*
G02*
X115366800Y-69596000I-1143000J0D01*
G01*
X99618800Y-43180000D02*
G75*
G02*
X101904800Y-43180000I1143000J0D01*
G01*
X101015800Y-89916000D02*
X102285800Y-91186000D01*
X103301799Y-57531000D02*
X113969801Y-57531000D01*
X118795800Y-81026000D02*
X118795800Y-41402000D01*
X103301799Y-41783000D02*
G75*
G02*
X103301799Y-39497000I1J1143000D01*
G01*
X117652800Y-53848001D02*
X117652800Y-43179999D01*
X116255800Y-82042000D02*
X116255800Y-89916000D01*
X98475800Y-81026000D02*
X99491800Y-82042000D01*
X98475800Y-41402000D02*
G75*
G02*
X101523800Y-38354000I3048000J0D01*
G01*
X115747800Y-38354000D02*
X101523800Y-38354000D01*
X113969801Y-39497000D02*
G75*
G02*
X113969801Y-41783000I-1J-1143000D01*
G01*
X116255800Y-89916000D02*
X114985800Y-91186000D01*
X99618800Y-58927999D02*
X99618800Y-69596001D01*
X113969801Y-55245000D02*
X103301799Y-55245000D01*
X115366800Y-58927998D02*
G75*
G02*
X117652800Y-58927998I1143000J0D01*
G01*
X103301799Y-73279000D02*
G75*
G02*
X103301799Y-70993000I1J1143000D01*
G01*
X115366800Y-58927998D02*
X115366800Y-69596000D01*
M02*
