%TF.GenerationSoftware,KiCad,Pcbnew,8.0.6*%
%TF.CreationDate,2025-01-11T11:08:49-05:00*%
%TF.ProjectId,RetroLite,52657472-6f4c-4697-9465-2e6b69636164,rev?*%
%TF.SameCoordinates,Original*%
%TF.FileFunction,Copper,L2,Bot*%
%TF.FilePolarity,Positive*%
%FSLAX46Y46*%
G04 Gerber Fmt 4.6, Leading zero omitted, Abs format (unit mm)*
G04 Created by KiCad (PCBNEW 8.0.6) date 2025-01-11 11:08:49*
%MOMM*%
%LPD*%
G01*
G04 APERTURE LIST*
G04 Aperture macros list*
%AMRoundRect*
0 Rectangle with rounded corners*
0 $1 Rounding radius*
0 $2 $3 $4 $5 $6 $7 $8 $9 X,Y pos of 4 corners*
0 Add a 4 corners polygon primitive as box body*
4,1,4,$2,$3,$4,$5,$6,$7,$8,$9,$2,$3,0*
0 Add four circle primitives for the rounded corners*
1,1,$1+$1,$2,$3*
1,1,$1+$1,$4,$5*
1,1,$1+$1,$6,$7*
1,1,$1+$1,$8,$9*
0 Add four rect primitives between the rounded corners*
20,1,$1+$1,$2,$3,$4,$5,0*
20,1,$1+$1,$4,$5,$6,$7,0*
20,1,$1+$1,$6,$7,$8,$9,0*
20,1,$1+$1,$8,$9,$2,$3,0*%
G04 Aperture macros list end*
%TA.AperFunction,SMDPad,CuDef*%
%ADD10RoundRect,0.400000X-0.400000X-3.600000X0.400000X-3.600000X0.400000X3.600000X-0.400000X3.600000X0*%
%TD*%
%TA.AperFunction,SMDPad,CuDef*%
%ADD11RoundRect,0.250000X0.512000X0.512000X-0.512000X0.512000X-0.512000X-0.512000X0.512000X-0.512000X0*%
%TD*%
%TA.AperFunction,ViaPad*%
%ADD12C,0.600000*%
%TD*%
%TA.AperFunction,Conductor*%
%ADD13C,0.200000*%
%TD*%
G04 APERTURE END LIST*
D10*
%TO.P,J1,6,Pin_6*%
%TO.N,MISO*%
X113715800Y-87122000D03*
%TO.P,J1,7,Pin_7*%
%TO.N,GND*%
X111175800Y-87122000D03*
%TO.P,J1,8,Pin_8*%
%TO.N,~{OE}*%
X108635800Y-87122000D03*
%TO.P,J1,9,Pin_9*%
%TO.N,LATCH*%
X106095800Y-87122000D03*
%TO.P,J1,10,Pin_10*%
%TO.N,CHAIN*%
X103555800Y-87122000D03*
%TD*%
D11*
%TO.P,TP5,1,1*%
%TO.N,/D*%
X116509800Y-72136000D03*
%TD*%
%TO.P,TP7,1,1*%
%TO.N,/F*%
X100761800Y-56388000D03*
%TD*%
%TO.P,TP2,1,1*%
%TO.N,/A*%
X116509800Y-40640000D03*
%TD*%
%TO.P,TP8,1,1*%
%TO.N,/G*%
X116509800Y-56388000D03*
%TD*%
%TO.P,TP6,1,1*%
%TO.N,/E*%
X100761800Y-72136000D03*
%TD*%
%TO.P,TP10,1,1*%
%TO.N,GND*%
X100761800Y-40640000D03*
%TD*%
D12*
%TO.N,MISO*%
X104825800Y-83007200D03*
X110540800Y-80924400D03*
%TO.N,GND*%
X114223800Y-42926000D03*
X114223800Y-74803000D03*
X114528600Y-80264000D03*
X102031800Y-87122000D03*
X114223800Y-58674000D03*
X115366800Y-39243000D03*
X117068600Y-81381600D03*
X112445800Y-81229200D03*
X115493800Y-87122000D03*
X103047800Y-54102000D03*
X104267000Y-82042000D03*
X114223800Y-69850000D03*
X103047800Y-42926000D03*
X103047800Y-69850000D03*
X103047800Y-58674000D03*
X101904800Y-39243000D03*
X114223800Y-54102000D03*
X109905800Y-83007200D03*
%TO.N,~{OE}*%
X109270800Y-80924400D03*
%TO.N,LATCH*%
X108000800Y-80924400D03*
%TO.N,VCC*%
X106095800Y-81280000D03*
X113080800Y-79270000D03*
%TO.N,Net-(U1-QG)*%
X109905800Y-76809600D03*
X106730800Y-75895200D03*
%TO.N,CHAIN*%
X104190800Y-80924400D03*
X113919000Y-82600800D03*
%TO.N,/A*%
X117906800Y-80264000D03*
%TO.N,/D*%
X116330800Y-77216000D03*
%TO.N,/E*%
X100940800Y-75692000D03*
%TO.N,/F*%
X99339400Y-74168000D03*
%TO.N,/G*%
X117895800Y-78740000D03*
%TD*%
D13*
%TO.N,MISO*%
X107914271Y-80162400D02*
X109804200Y-80162400D01*
X109804200Y-80162400D02*
X110540800Y-80899000D01*
X110540800Y-80899000D02*
X110540800Y-80924400D01*
X113715800Y-87122000D02*
X113715800Y-84099400D01*
X104825800Y-83007200D02*
X105791000Y-82042000D01*
X106502200Y-82042000D02*
X107061000Y-81483200D01*
X105791000Y-82042000D02*
X106502200Y-82042000D01*
X107061000Y-81015671D02*
X107914271Y-80162400D01*
X113715800Y-84099400D02*
X110540800Y-80924400D01*
X107061000Y-81483200D02*
X107061000Y-81015671D01*
%TO.N,~{OE}*%
X109270800Y-83185000D02*
X108635800Y-83820000D01*
X109270800Y-80924400D02*
X109270800Y-83185000D01*
X108635800Y-83820000D02*
X108635800Y-87122000D01*
%TO.N,LATCH*%
X108000800Y-82067400D02*
X106095800Y-83972400D01*
X108000800Y-80924400D02*
X108000800Y-82067400D01*
X106095800Y-83972400D02*
X106095800Y-87122000D01*
%TO.N,VCC*%
X106095800Y-81280000D02*
X106095800Y-79654400D01*
X106095800Y-79654400D02*
X106480200Y-79270000D01*
X106480200Y-79270000D02*
X113080800Y-79270000D01*
%TO.N,Net-(U1-QG)*%
X109905800Y-76809600D02*
X107645200Y-76809600D01*
X107645200Y-76809600D02*
X106730800Y-75895200D01*
%TO.N,CHAIN*%
X106045000Y-78130400D02*
X104190800Y-79984600D01*
X104190800Y-79984600D02*
X104190800Y-80924400D01*
X113919000Y-82600800D02*
X113919000Y-78663800D01*
X103555800Y-81559400D02*
X103555800Y-87122000D01*
X113385600Y-78130400D02*
X106045000Y-78130400D01*
X104190800Y-80924400D02*
X103555800Y-81559400D01*
X113919000Y-78663800D02*
X113385600Y-78130400D01*
%TO.N,/A*%
X118495800Y-42626000D02*
X118495800Y-79675000D01*
X118495800Y-79675000D02*
X117906800Y-80264000D01*
X116509800Y-40640000D02*
X118495800Y-42626000D01*
%TO.N,/D*%
X116330800Y-77216000D02*
X116255800Y-77141000D01*
X116255800Y-77141000D02*
X116255800Y-72390000D01*
X116255800Y-72390000D02*
X116509800Y-72136000D01*
%TO.N,/E*%
X100761800Y-72136000D02*
X100940800Y-72315000D01*
X100940800Y-72315000D02*
X100940800Y-75692000D01*
%TO.N,/F*%
X99034600Y-73863200D02*
X99339400Y-74168000D01*
X99034600Y-58115200D02*
X99034600Y-61264800D01*
X99034600Y-61264800D02*
X99034600Y-73863200D01*
X100761800Y-56388000D02*
X99034600Y-58115200D01*
%TO.N,/G*%
X118033800Y-78602000D02*
X117895800Y-78740000D01*
X118033800Y-57912000D02*
X118033800Y-78602000D01*
X116509800Y-56388000D02*
X118033800Y-57912000D01*
%TD*%
%TA.AperFunction,Conductor*%
%TO.N,GND*%
G36*
X115749865Y-38554615D02*
G01*
X116062482Y-38572171D01*
X116070717Y-38573100D01*
X116377326Y-38625196D01*
X116385417Y-38627042D01*
X116684287Y-38713144D01*
X116692100Y-38715878D01*
X116938298Y-38817857D01*
X116979450Y-38834903D01*
X116986913Y-38838497D01*
X117259132Y-38988947D01*
X117266141Y-38993351D01*
X117519802Y-39173333D01*
X117526279Y-39178498D01*
X117758193Y-39385748D01*
X117764051Y-39391606D01*
X117971299Y-39623518D01*
X117976466Y-39629997D01*
X118156448Y-39883658D01*
X118160855Y-39890672D01*
X118265588Y-40080171D01*
X118311296Y-40162873D01*
X118314896Y-40170349D01*
X118433917Y-40457689D01*
X118436658Y-40465522D01*
X118522757Y-40764383D01*
X118524603Y-40772473D01*
X118576698Y-41079076D01*
X118577628Y-41087323D01*
X118595184Y-41399934D01*
X118595300Y-41404083D01*
X118595300Y-42121877D01*
X118573626Y-42174203D01*
X118521300Y-42195877D01*
X118468974Y-42174203D01*
X117493974Y-41199203D01*
X117472300Y-41146877D01*
X117472300Y-40073740D01*
X117472300Y-40073734D01*
X117469446Y-40043301D01*
X117424593Y-39915118D01*
X117403870Y-39887039D01*
X117343953Y-39805853D01*
X117343946Y-39805846D01*
X117234683Y-39725207D01*
X117234681Y-39725206D01*
X117106504Y-39680355D01*
X117106505Y-39680355D01*
X117106500Y-39680354D01*
X117106499Y-39680354D01*
X117076066Y-39677500D01*
X115943534Y-39677500D01*
X115913101Y-39680354D01*
X115913099Y-39680354D01*
X115913095Y-39680355D01*
X115784918Y-39725206D01*
X115784916Y-39725207D01*
X115675653Y-39805846D01*
X115675646Y-39805853D01*
X115595007Y-39915116D01*
X115595006Y-39915118D01*
X115550155Y-40043295D01*
X115550154Y-40043299D01*
X115550154Y-40043301D01*
X115547300Y-40073734D01*
X115547300Y-41206266D01*
X115550154Y-41236699D01*
X115550154Y-41236701D01*
X115550155Y-41236704D01*
X115595006Y-41364881D01*
X115595007Y-41364883D01*
X115675646Y-41474146D01*
X115675653Y-41474153D01*
X115784916Y-41554792D01*
X115784918Y-41554793D01*
X115913095Y-41599644D01*
X115913101Y-41599646D01*
X115943534Y-41602500D01*
X117016677Y-41602500D01*
X117069003Y-41624174D01*
X118173626Y-42728797D01*
X118195300Y-42781123D01*
X118195300Y-57469877D01*
X118173626Y-57522203D01*
X118121300Y-57543877D01*
X118068974Y-57522203D01*
X117493974Y-56947203D01*
X117472300Y-56894877D01*
X117472300Y-55821740D01*
X117472300Y-55821734D01*
X117469446Y-55791301D01*
X117424593Y-55663118D01*
X117424592Y-55663116D01*
X117343953Y-55553853D01*
X117343946Y-55553846D01*
X117234683Y-55473207D01*
X117234681Y-55473206D01*
X117106504Y-55428355D01*
X117106505Y-55428355D01*
X117106500Y-55428354D01*
X117106499Y-55428354D01*
X117076066Y-55425500D01*
X115943534Y-55425500D01*
X115913101Y-55428354D01*
X115913099Y-55428354D01*
X115913095Y-55428355D01*
X115784918Y-55473206D01*
X115784916Y-55473207D01*
X115675653Y-55553846D01*
X115675646Y-55553853D01*
X115595007Y-55663116D01*
X115595006Y-55663118D01*
X115550155Y-55791295D01*
X115550154Y-55791299D01*
X115550154Y-55791301D01*
X115547300Y-55821734D01*
X115547300Y-56954266D01*
X115550154Y-56984699D01*
X115550154Y-56984701D01*
X115550155Y-56984704D01*
X115595006Y-57112881D01*
X115595007Y-57112883D01*
X115675646Y-57222146D01*
X115675653Y-57222153D01*
X115784916Y-57302792D01*
X115784918Y-57302793D01*
X115913095Y-57347644D01*
X115913101Y-57347646D01*
X115943534Y-57350500D01*
X117016677Y-57350500D01*
X117069003Y-57372174D01*
X117711626Y-58014797D01*
X117733300Y-58067123D01*
X117733300Y-58097044D01*
X117711626Y-58149370D01*
X117659300Y-58171044D01*
X117606974Y-58149370D01*
X117600904Y-58142496D01*
X117501634Y-58014953D01*
X117349321Y-57874740D01*
X117337823Y-57864155D01*
X117151427Y-57742376D01*
X117126628Y-57731498D01*
X116947535Y-57652940D01*
X116947531Y-57652939D01*
X116947529Y-57652938D01*
X116801003Y-57615832D01*
X116731684Y-57598278D01*
X116509803Y-57579894D01*
X116509797Y-57579894D01*
X116287915Y-57598278D01*
X116141383Y-57635385D01*
X116072071Y-57652938D01*
X116072069Y-57652938D01*
X116072064Y-57652940D01*
X115868172Y-57742376D01*
X115681788Y-57864147D01*
X115681778Y-57864154D01*
X115517966Y-58014953D01*
X115381215Y-58190652D01*
X115381213Y-58190653D01*
X115381213Y-58190655D01*
X115381211Y-58190658D01*
X115381209Y-58190662D01*
X115275241Y-58386471D01*
X115202947Y-58597059D01*
X115180055Y-58734241D01*
X115166300Y-58816672D01*
X115166300Y-58888116D01*
X115166300Y-69556118D01*
X115166300Y-69596000D01*
X115166300Y-69707326D01*
X115184640Y-69817232D01*
X115202947Y-69926938D01*
X115275241Y-70137526D01*
X115336923Y-70251504D01*
X115381213Y-70333343D01*
X115417263Y-70379660D01*
X115454072Y-70426953D01*
X115517968Y-70509046D01*
X115681777Y-70659843D01*
X115868173Y-70781622D01*
X116072071Y-70871060D01*
X116287909Y-70925718D01*
X116287912Y-70925718D01*
X116287915Y-70925719D01*
X116509797Y-70944104D01*
X116509800Y-70944104D01*
X116509803Y-70944104D01*
X116731684Y-70925719D01*
X116731686Y-70925718D01*
X116731691Y-70925718D01*
X116947529Y-70871060D01*
X117151427Y-70781622D01*
X117337823Y-70659843D01*
X117501632Y-70509046D01*
X117600903Y-70381501D01*
X117650146Y-70353521D01*
X117704751Y-70368556D01*
X117732732Y-70417799D01*
X117733300Y-70426953D01*
X117733300Y-78210773D01*
X117711626Y-78263099D01*
X117690044Y-78278084D01*
X117685749Y-78280045D01*
X117564675Y-78357855D01*
X117564668Y-78357860D01*
X117470423Y-78466626D01*
X117470423Y-78466627D01*
X117410636Y-78597542D01*
X117410635Y-78597544D01*
X117390153Y-78740000D01*
X117410634Y-78882454D01*
X117410634Y-78882455D01*
X117410635Y-78882457D01*
X117450300Y-78969311D01*
X117470423Y-79013373D01*
X117564668Y-79122139D01*
X117564669Y-79122140D01*
X117564672Y-79122143D01*
X117685747Y-79199953D01*
X117792203Y-79231211D01*
X117823835Y-79240499D01*
X117823837Y-79240500D01*
X117823839Y-79240500D01*
X117967762Y-79240500D01*
X117994713Y-79232586D01*
X118100453Y-79201538D01*
X118156764Y-79207591D01*
X118192302Y-79251691D01*
X118195300Y-79272540D01*
X118195300Y-79519876D01*
X118173626Y-79572202D01*
X118004002Y-79741826D01*
X117951676Y-79763500D01*
X117834836Y-79763500D01*
X117696749Y-79804046D01*
X117696745Y-79804047D01*
X117575675Y-79881855D01*
X117575668Y-79881860D01*
X117481423Y-79990626D01*
X117421634Y-80121545D01*
X117401153Y-80264000D01*
X117421634Y-80406454D01*
X117421634Y-80406455D01*
X117421635Y-80406457D01*
X117455666Y-80480974D01*
X117481423Y-80537373D01*
X117575668Y-80646139D01*
X117575669Y-80646140D01*
X117575672Y-80646143D01*
X117668274Y-80705654D01*
X117672130Y-80708133D01*
X117696747Y-80723953D01*
X117803203Y-80755211D01*
X117834835Y-80764499D01*
X117834837Y-80764500D01*
X117834839Y-80764500D01*
X117978763Y-80764500D01*
X117978764Y-80764499D01*
X118116853Y-80723953D01*
X118237928Y-80646143D01*
X118332177Y-80537373D01*
X118391965Y-80406457D01*
X118412447Y-80264000D01*
X118407576Y-80230128D01*
X118421582Y-80175253D01*
X118428490Y-80167279D01*
X118468975Y-80126794D01*
X118521301Y-80105122D01*
X118573627Y-80126797D01*
X118595300Y-80179122D01*
X118595300Y-80912298D01*
X118573626Y-80964624D01*
X117718424Y-81819826D01*
X117666098Y-81841500D01*
X116215918Y-81841500D01*
X116142228Y-81872022D01*
X116085822Y-81928428D01*
X116055300Y-82002116D01*
X116055300Y-89802298D01*
X116033626Y-89854624D01*
X114924424Y-90963826D01*
X114872098Y-90985500D01*
X114767380Y-90985500D01*
X114715054Y-90963826D01*
X114693380Y-90911500D01*
X114699012Y-90883183D01*
X114700844Y-90878762D01*
X114716300Y-90761361D01*
X114716299Y-83482640D01*
X114700844Y-83365238D01*
X114640336Y-83219159D01*
X114544082Y-83093718D01*
X114544079Y-83093715D01*
X114418641Y-82997464D01*
X114379218Y-82981134D01*
X114339170Y-82941085D01*
X114339170Y-82884448D01*
X114343211Y-82876724D01*
X114344374Y-82874175D01*
X114344377Y-82874173D01*
X114404165Y-82743257D01*
X114424647Y-82600800D01*
X114404165Y-82458343D01*
X114344377Y-82327427D01*
X114270788Y-82242500D01*
X114250131Y-82218660D01*
X114246128Y-82215192D01*
X114248041Y-82212983D01*
X114221183Y-82174259D01*
X114219500Y-82158566D01*
X114219500Y-78624238D01*
X114212347Y-78597543D01*
X114199022Y-78547812D01*
X114159460Y-78479289D01*
X113570111Y-77889940D01*
X113570106Y-77889937D01*
X113501590Y-77850379D01*
X113501585Y-77850377D01*
X113425164Y-77829900D01*
X113425162Y-77829900D01*
X106084562Y-77829900D01*
X106005438Y-77829900D01*
X105929012Y-77850378D01*
X105929011Y-77850378D01*
X105929009Y-77850379D01*
X105929007Y-77850380D01*
X105860492Y-77889937D01*
X104006289Y-79744140D01*
X103950340Y-79800088D01*
X103910779Y-79868609D01*
X103910777Y-79868614D01*
X103890300Y-79945035D01*
X103890300Y-80482166D01*
X103868626Y-80534492D01*
X103863515Y-80538611D01*
X103863672Y-80538792D01*
X103859668Y-80542260D01*
X103765423Y-80651026D01*
X103705634Y-80781945D01*
X103685153Y-80924400D01*
X103690022Y-80958270D01*
X103676014Y-81013148D01*
X103669101Y-81021126D01*
X103371289Y-81318940D01*
X103315340Y-81374888D01*
X103275779Y-81443409D01*
X103275777Y-81443414D01*
X103255300Y-81519835D01*
X103255300Y-82847500D01*
X103233626Y-82899826D01*
X103181301Y-82921500D01*
X103116440Y-82921500D01*
X102999040Y-82936955D01*
X102999036Y-82936956D01*
X102852959Y-82997463D01*
X102727520Y-83093715D01*
X102727515Y-83093720D01*
X102631264Y-83219158D01*
X102570755Y-83365238D01*
X102555300Y-83482640D01*
X102555300Y-90761359D01*
X102570755Y-90878759D01*
X102570755Y-90878760D01*
X102570756Y-90878762D01*
X102572587Y-90883182D01*
X102572587Y-90939818D01*
X102532539Y-90979867D01*
X102504220Y-90985500D01*
X102399502Y-90985500D01*
X102347176Y-90963826D01*
X101237974Y-89854624D01*
X101216300Y-89802298D01*
X101216300Y-82002118D01*
X101216299Y-82002116D01*
X101185777Y-81928428D01*
X101185775Y-81928425D01*
X101129375Y-81872025D01*
X101129371Y-81872022D01*
X101055682Y-81841500D01*
X99605502Y-81841500D01*
X99553176Y-81819826D01*
X98697974Y-80964624D01*
X98676300Y-80912298D01*
X98676300Y-74108523D01*
X98697974Y-74056197D01*
X98750300Y-74034523D01*
X98802626Y-74056197D01*
X98817701Y-74071272D01*
X98839375Y-74123598D01*
X98838622Y-74134127D01*
X98833753Y-74167998D01*
X98833753Y-74167999D01*
X98854234Y-74310454D01*
X98914023Y-74441373D01*
X99008268Y-74550139D01*
X99008269Y-74550140D01*
X99008272Y-74550143D01*
X99129347Y-74627953D01*
X99235803Y-74659211D01*
X99267435Y-74668499D01*
X99267437Y-74668500D01*
X99267439Y-74668500D01*
X99411363Y-74668500D01*
X99411364Y-74668499D01*
X99549453Y-74627953D01*
X99670528Y-74550143D01*
X99764777Y-74441373D01*
X99824565Y-74310457D01*
X99845047Y-74168000D01*
X99824565Y-74025543D01*
X99764777Y-73894627D01*
X99670528Y-73785857D01*
X99613582Y-73749260D01*
X99549454Y-73708047D01*
X99549450Y-73708046D01*
X99411364Y-73667500D01*
X99411361Y-73667500D01*
X99409100Y-73667500D01*
X99407897Y-73667001D01*
X99406125Y-73666747D01*
X99406190Y-73666294D01*
X99356774Y-73645826D01*
X99335100Y-73593500D01*
X99335100Y-71569734D01*
X99799300Y-71569734D01*
X99799300Y-72702266D01*
X99802154Y-72732699D01*
X99802154Y-72732701D01*
X99802155Y-72732704D01*
X99847006Y-72860881D01*
X99847007Y-72860883D01*
X99927646Y-72970146D01*
X99927653Y-72970153D01*
X100036916Y-73050792D01*
X100036918Y-73050793D01*
X100165095Y-73095644D01*
X100165101Y-73095646D01*
X100195534Y-73098500D01*
X100566300Y-73098500D01*
X100618626Y-73120174D01*
X100640300Y-73172500D01*
X100640300Y-75249766D01*
X100618626Y-75302092D01*
X100613515Y-75306211D01*
X100613672Y-75306392D01*
X100609668Y-75309860D01*
X100515423Y-75418626D01*
X100455634Y-75549545D01*
X100435153Y-75692000D01*
X100455634Y-75834454D01*
X100515423Y-75965373D01*
X100609668Y-76074139D01*
X100609669Y-76074140D01*
X100609672Y-76074143D01*
X100730747Y-76151953D01*
X100837203Y-76183211D01*
X100868835Y-76192499D01*
X100868837Y-76192500D01*
X100868839Y-76192500D01*
X101012763Y-76192500D01*
X101012764Y-76192499D01*
X101150853Y-76151953D01*
X101271928Y-76074143D01*
X101366177Y-75965373D01*
X101398224Y-75895200D01*
X106225153Y-75895200D01*
X106245634Y-76037654D01*
X106245634Y-76037655D01*
X106245635Y-76037657D01*
X106297832Y-76151952D01*
X106305423Y-76168573D01*
X106399668Y-76277339D01*
X106399669Y-76277340D01*
X106399672Y-76277343D01*
X106520747Y-76355153D01*
X106627203Y-76386411D01*
X106658835Y-76395699D01*
X106658837Y-76395700D01*
X106775677Y-76395700D01*
X106828003Y-76417374D01*
X107404740Y-76994111D01*
X107460689Y-77050060D01*
X107529211Y-77089621D01*
X107529212Y-77089621D01*
X107529214Y-77089622D01*
X107567424Y-77099860D01*
X107605635Y-77110099D01*
X107605636Y-77110100D01*
X107605638Y-77110100D01*
X107684762Y-77110100D01*
X109470133Y-77110100D01*
X109522459Y-77131774D01*
X109526059Y-77135641D01*
X109574668Y-77191739D01*
X109574671Y-77191742D01*
X109574672Y-77191743D01*
X109695747Y-77269553D01*
X109802203Y-77300811D01*
X109833835Y-77310099D01*
X109833837Y-77310100D01*
X109833839Y-77310100D01*
X109977763Y-77310100D01*
X109977764Y-77310099D01*
X110115853Y-77269553D01*
X110236928Y-77191743D01*
X110331177Y-77082973D01*
X110390965Y-76952057D01*
X110411447Y-76809600D01*
X110390965Y-76667143D01*
X110331177Y-76536227D01*
X110236928Y-76427457D01*
X110124421Y-76355153D01*
X110115854Y-76349647D01*
X110115850Y-76349646D01*
X109977764Y-76309100D01*
X109977761Y-76309100D01*
X109833839Y-76309100D01*
X109833836Y-76309100D01*
X109695749Y-76349646D01*
X109695745Y-76349647D01*
X109574671Y-76427457D01*
X109574668Y-76427460D01*
X109526059Y-76483559D01*
X109475412Y-76508911D01*
X109470133Y-76509100D01*
X107800323Y-76509100D01*
X107747997Y-76487426D01*
X107252497Y-75991926D01*
X107230823Y-75939600D01*
X107231577Y-75929066D01*
X107236447Y-75895202D01*
X107236447Y-75895201D01*
X107236447Y-75895200D01*
X107215965Y-75752743D01*
X107156177Y-75621827D01*
X107061928Y-75513057D01*
X107004982Y-75476460D01*
X106940854Y-75435247D01*
X106940850Y-75435246D01*
X106802764Y-75394700D01*
X106802761Y-75394700D01*
X106658839Y-75394700D01*
X106658836Y-75394700D01*
X106520749Y-75435246D01*
X106520745Y-75435247D01*
X106399675Y-75513055D01*
X106399668Y-75513060D01*
X106305423Y-75621826D01*
X106245634Y-75752745D01*
X106225153Y-75895200D01*
X101398224Y-75895200D01*
X101425965Y-75834457D01*
X101446447Y-75692000D01*
X101425965Y-75549543D01*
X101366177Y-75418627D01*
X101271928Y-75309857D01*
X101271926Y-75309855D01*
X101267928Y-75306392D01*
X101269841Y-75304183D01*
X101242983Y-75265459D01*
X101241300Y-75249766D01*
X101241300Y-73172500D01*
X101262974Y-73120174D01*
X101315300Y-73098500D01*
X101328058Y-73098500D01*
X101328066Y-73098500D01*
X101358499Y-73095646D01*
X101486682Y-73050793D01*
X101595950Y-72970150D01*
X101676593Y-72860882D01*
X101721446Y-72732699D01*
X101724300Y-72702266D01*
X101724300Y-72135996D01*
X101953696Y-72135996D01*
X101953696Y-72136003D01*
X101972080Y-72357884D01*
X101972082Y-72357891D01*
X102007228Y-72496679D01*
X102026742Y-72573734D01*
X102116178Y-72777626D01*
X102170571Y-72860882D01*
X102237956Y-72964022D01*
X102388754Y-73127832D01*
X102564456Y-73264587D01*
X102760272Y-73370557D01*
X102970859Y-73442852D01*
X103190473Y-73479499D01*
X103247195Y-73479499D01*
X103247199Y-73479500D01*
X103261917Y-73479500D01*
X114040334Y-73479500D01*
X114040336Y-73479499D01*
X114081127Y-73479499D01*
X114300741Y-73442852D01*
X114511328Y-73370557D01*
X114707144Y-73264587D01*
X114882846Y-73127832D01*
X115033644Y-72964022D01*
X115155422Y-72777626D01*
X115244860Y-72573728D01*
X115299518Y-72357891D01*
X115302669Y-72319873D01*
X115317904Y-72136003D01*
X115317904Y-72135996D01*
X115299519Y-71914115D01*
X115299518Y-71914112D01*
X115299518Y-71914109D01*
X115244860Y-71698272D01*
X115188478Y-71569734D01*
X115547300Y-71569734D01*
X115547300Y-72702266D01*
X115550154Y-72732699D01*
X115550154Y-72732701D01*
X115550155Y-72732704D01*
X115595006Y-72860881D01*
X115595007Y-72860883D01*
X115675646Y-72970146D01*
X115675653Y-72970153D01*
X115784916Y-73050792D01*
X115784918Y-73050793D01*
X115905741Y-73093071D01*
X115947972Y-73130810D01*
X115955300Y-73162918D01*
X115955300Y-76857464D01*
X115937226Y-76905923D01*
X115905425Y-76942622D01*
X115905424Y-76942624D01*
X115845634Y-77073545D01*
X115825153Y-77216000D01*
X115845634Y-77358454D01*
X115905423Y-77489373D01*
X115999668Y-77598139D01*
X115999669Y-77598140D01*
X115999672Y-77598143D01*
X116120747Y-77675953D01*
X116227203Y-77707211D01*
X116258835Y-77716499D01*
X116258837Y-77716500D01*
X116258839Y-77716500D01*
X116402763Y-77716500D01*
X116402764Y-77716499D01*
X116540853Y-77675953D01*
X116661928Y-77598143D01*
X116756177Y-77489373D01*
X116815965Y-77358457D01*
X116836447Y-77216000D01*
X116815965Y-77073543D01*
X116756177Y-76942627D01*
X116706300Y-76885065D01*
X116661931Y-76833860D01*
X116661929Y-76833859D01*
X116661928Y-76833857D01*
X116590291Y-76787818D01*
X116557991Y-76741297D01*
X116556300Y-76725567D01*
X116556300Y-73172500D01*
X116577974Y-73120174D01*
X116630300Y-73098500D01*
X117076058Y-73098500D01*
X117076066Y-73098500D01*
X117106499Y-73095646D01*
X117234682Y-73050793D01*
X117343950Y-72970150D01*
X117424593Y-72860882D01*
X117469446Y-72732699D01*
X117472300Y-72702266D01*
X117472300Y-71569734D01*
X117469446Y-71539301D01*
X117424593Y-71411118D01*
X117424592Y-71411116D01*
X117343953Y-71301853D01*
X117343946Y-71301846D01*
X117234683Y-71221207D01*
X117234681Y-71221206D01*
X117106504Y-71176355D01*
X117106505Y-71176355D01*
X117106500Y-71176354D01*
X117106499Y-71176354D01*
X117076066Y-71173500D01*
X115943534Y-71173500D01*
X115913101Y-71176354D01*
X115913099Y-71176354D01*
X115913095Y-71176355D01*
X115784918Y-71221206D01*
X115784916Y-71221207D01*
X115675653Y-71301846D01*
X115675646Y-71301853D01*
X115595007Y-71411116D01*
X115595006Y-71411118D01*
X115550155Y-71539295D01*
X115550154Y-71539299D01*
X115550154Y-71539301D01*
X115547300Y-71569734D01*
X115188478Y-71569734D01*
X115155422Y-71494374D01*
X115033644Y-71307978D01*
X114882846Y-71144168D01*
X114832808Y-71105222D01*
X114707146Y-71007414D01*
X114511329Y-70901443D01*
X114410428Y-70866803D01*
X114300741Y-70829148D01*
X114300738Y-70829147D01*
X114300737Y-70829147D01*
X114227711Y-70816961D01*
X114081127Y-70792501D01*
X114081122Y-70792500D01*
X114081120Y-70792500D01*
X114009683Y-70792500D01*
X103261917Y-70792500D01*
X103261916Y-70792500D01*
X103190479Y-70792500D01*
X103190476Y-70792500D01*
X103190473Y-70792501D01*
X103080535Y-70810846D01*
X102970862Y-70829147D01*
X102760270Y-70901443D01*
X102564453Y-71007414D01*
X102388752Y-71144169D01*
X102237953Y-71307981D01*
X102116178Y-71494373D01*
X102026742Y-71698265D01*
X101972080Y-71914115D01*
X101953696Y-72135996D01*
X101724300Y-72135996D01*
X101724300Y-71569734D01*
X101721446Y-71539301D01*
X101676593Y-71411118D01*
X101676592Y-71411116D01*
X101595953Y-71301853D01*
X101595946Y-71301846D01*
X101486683Y-71221207D01*
X101486681Y-71221206D01*
X101358504Y-71176355D01*
X101358505Y-71176355D01*
X101358500Y-71176354D01*
X101358499Y-71176354D01*
X101328066Y-71173500D01*
X100195534Y-71173500D01*
X100165101Y-71176354D01*
X100165099Y-71176354D01*
X100165095Y-71176355D01*
X100036918Y-71221206D01*
X100036916Y-71221207D01*
X99927653Y-71301846D01*
X99927646Y-71301853D01*
X99847007Y-71411116D01*
X99847006Y-71411118D01*
X99802155Y-71539295D01*
X99802154Y-71539299D01*
X99802154Y-71539301D01*
X99799300Y-71569734D01*
X99335100Y-71569734D01*
X99335100Y-70021293D01*
X99356774Y-69968967D01*
X99409100Y-69947293D01*
X99461426Y-69968967D01*
X99479089Y-69997263D01*
X99487339Y-70021293D01*
X99527241Y-70137527D01*
X99527242Y-70137528D01*
X99633213Y-70333344D01*
X99660620Y-70368556D01*
X99769965Y-70509044D01*
X99769968Y-70509047D01*
X99933777Y-70659844D01*
X100120173Y-70781623D01*
X100324071Y-70871061D01*
X100539909Y-70925719D01*
X100539912Y-70925719D01*
X100539915Y-70925720D01*
X100761797Y-70944105D01*
X100761800Y-70944105D01*
X100761803Y-70944105D01*
X100983684Y-70925720D01*
X100983686Y-70925719D01*
X100983691Y-70925719D01*
X101199529Y-70871061D01*
X101403427Y-70781623D01*
X101589823Y-70659844D01*
X101753632Y-70509047D01*
X101890387Y-70333344D01*
X101996358Y-70137528D01*
X102068652Y-69926941D01*
X102105300Y-69707327D01*
X102105300Y-69596001D01*
X102105300Y-69556119D01*
X102105300Y-69556118D01*
X102105300Y-58888117D01*
X102105300Y-58888116D01*
X102105300Y-58816673D01*
X102068652Y-58597059D01*
X101996358Y-58386472D01*
X101890387Y-58190656D01*
X101753632Y-58014953D01*
X101589823Y-57864156D01*
X101403427Y-57742377D01*
X101378628Y-57731499D01*
X101199535Y-57652941D01*
X101199531Y-57652940D01*
X101199529Y-57652939D01*
X101053003Y-57615833D01*
X100983684Y-57598279D01*
X100761803Y-57579895D01*
X100761797Y-57579895D01*
X100539915Y-57598279D01*
X100393383Y-57635386D01*
X100324071Y-57652939D01*
X100324069Y-57652939D01*
X100324064Y-57652941D01*
X100120172Y-57742377D01*
X99933788Y-57864148D01*
X99933778Y-57864155D01*
X99769966Y-58014954D01*
X99633215Y-58190653D01*
X99633209Y-58190663D01*
X99527241Y-58386472D01*
X99479091Y-58526733D01*
X99441601Y-58569187D01*
X99385073Y-58572697D01*
X99342619Y-58535207D01*
X99335100Y-58502706D01*
X99335100Y-58270323D01*
X99356774Y-58217997D01*
X100202597Y-57372174D01*
X100254923Y-57350500D01*
X101328058Y-57350500D01*
X101328066Y-57350500D01*
X101358499Y-57347646D01*
X101486682Y-57302793D01*
X101595950Y-57222150D01*
X101676593Y-57112882D01*
X101721446Y-56984699D01*
X101724300Y-56954266D01*
X101724300Y-56387996D01*
X101953696Y-56387996D01*
X101953696Y-56388003D01*
X101972080Y-56609884D01*
X101972082Y-56609891D01*
X102007228Y-56748679D01*
X102026742Y-56825734D01*
X102116178Y-57029626D01*
X102170571Y-57112882D01*
X102237956Y-57216022D01*
X102388754Y-57379832D01*
X102564456Y-57516587D01*
X102760272Y-57622557D01*
X102970859Y-57694852D01*
X103190473Y-57731499D01*
X103247195Y-57731499D01*
X103247199Y-57731500D01*
X103261917Y-57731500D01*
X114040334Y-57731500D01*
X114040336Y-57731499D01*
X114081127Y-57731499D01*
X114300741Y-57694852D01*
X114511328Y-57622557D01*
X114707144Y-57516587D01*
X114882846Y-57379832D01*
X115033644Y-57216022D01*
X115155422Y-57029626D01*
X115244860Y-56825728D01*
X115299518Y-56609891D01*
X115302669Y-56571873D01*
X115317904Y-56388003D01*
X115317904Y-56387996D01*
X115299519Y-56166115D01*
X115299518Y-56166112D01*
X115299518Y-56166109D01*
X115244860Y-55950272D01*
X115155422Y-55746374D01*
X115033644Y-55559978D01*
X114882846Y-55396168D01*
X114832808Y-55357222D01*
X114707146Y-55259414D01*
X114511329Y-55153443D01*
X114410428Y-55118803D01*
X114300741Y-55081148D01*
X114300738Y-55081147D01*
X114300737Y-55081147D01*
X114227711Y-55068961D01*
X114081127Y-55044501D01*
X114081122Y-55044500D01*
X114081120Y-55044500D01*
X114009683Y-55044500D01*
X103261917Y-55044500D01*
X103261916Y-55044500D01*
X103190479Y-55044500D01*
X103190476Y-55044500D01*
X103190473Y-55044501D01*
X103080535Y-55062846D01*
X102970862Y-55081147D01*
X102760270Y-55153443D01*
X102564453Y-55259414D01*
X102388752Y-55396169D01*
X102237953Y-55559981D01*
X102116178Y-55746373D01*
X102026742Y-55950265D01*
X101972080Y-56166115D01*
X101953696Y-56387996D01*
X101724300Y-56387996D01*
X101724300Y-55821734D01*
X101721446Y-55791301D01*
X101676593Y-55663118D01*
X101676592Y-55663116D01*
X101595953Y-55553853D01*
X101595946Y-55553846D01*
X101486683Y-55473207D01*
X101486681Y-55473206D01*
X101358504Y-55428355D01*
X101358505Y-55428355D01*
X101358500Y-55428354D01*
X101358499Y-55428354D01*
X101328066Y-55425500D01*
X100195534Y-55425500D01*
X100165101Y-55428354D01*
X100165099Y-55428354D01*
X100165095Y-55428355D01*
X100036918Y-55473206D01*
X100036916Y-55473207D01*
X99927653Y-55553846D01*
X99927646Y-55553853D01*
X99847007Y-55663116D01*
X99847006Y-55663118D01*
X99802155Y-55791295D01*
X99802154Y-55791299D01*
X99802154Y-55791301D01*
X99799300Y-55821734D01*
X99799300Y-55821740D01*
X99799300Y-56894877D01*
X99777626Y-56947203D01*
X98802626Y-57922203D01*
X98750300Y-57943877D01*
X98697974Y-57922203D01*
X98676300Y-57869877D01*
X98676300Y-43068674D01*
X99418300Y-43068674D01*
X99418300Y-43140117D01*
X99418300Y-43140118D01*
X99418300Y-53808119D01*
X99418300Y-53808120D01*
X99418300Y-53848002D01*
X99418300Y-53959328D01*
X99430406Y-54031874D01*
X99454947Y-54178940D01*
X99527241Y-54389528D01*
X99527242Y-54389529D01*
X99633213Y-54585345D01*
X99633214Y-54585346D01*
X99633215Y-54585347D01*
X99769965Y-54761045D01*
X99769968Y-54761048D01*
X99933777Y-54911845D01*
X100120173Y-55033624D01*
X100324071Y-55123062D01*
X100539909Y-55177720D01*
X100539912Y-55177720D01*
X100539915Y-55177721D01*
X100761797Y-55196106D01*
X100761800Y-55196106D01*
X100761803Y-55196106D01*
X100983684Y-55177721D01*
X100983686Y-55177720D01*
X100983691Y-55177720D01*
X101199529Y-55123062D01*
X101403427Y-55033624D01*
X101589823Y-54911845D01*
X101753632Y-54761048D01*
X101890387Y-54585345D01*
X101996358Y-54389529D01*
X102068652Y-54178942D01*
X102105300Y-53959328D01*
X102105300Y-53848002D01*
X102105300Y-53808120D01*
X102105300Y-53808119D01*
X102105300Y-43140118D01*
X102105300Y-43140117D01*
X102105300Y-43068674D01*
X102105300Y-43068673D01*
X115166300Y-43068673D01*
X115166300Y-43140117D01*
X115166300Y-53808119D01*
X115166300Y-53848001D01*
X115166300Y-53959327D01*
X115184640Y-54069233D01*
X115202947Y-54178939D01*
X115275241Y-54389527D01*
X115336923Y-54503505D01*
X115381213Y-54585344D01*
X115517968Y-54761047D01*
X115681777Y-54911844D01*
X115868173Y-55033623D01*
X116072071Y-55123061D01*
X116287909Y-55177719D01*
X116287912Y-55177719D01*
X116287915Y-55177720D01*
X116509797Y-55196105D01*
X116509800Y-55196105D01*
X116509803Y-55196105D01*
X116731684Y-55177720D01*
X116731686Y-55177719D01*
X116731691Y-55177719D01*
X116947529Y-55123061D01*
X117151427Y-55033623D01*
X117337823Y-54911844D01*
X117501632Y-54761047D01*
X117638387Y-54585344D01*
X117744358Y-54389528D01*
X117816652Y-54178941D01*
X117853300Y-53959327D01*
X117853300Y-53848001D01*
X117853300Y-53808119D01*
X117853300Y-43140117D01*
X117853300Y-43068673D01*
X117816652Y-42849059D01*
X117744358Y-42638472D01*
X117638387Y-42442656D01*
X117501632Y-42266953D01*
X117337823Y-42116156D01*
X117151427Y-41994377D01*
X117126628Y-41983499D01*
X116947535Y-41904941D01*
X116947531Y-41904940D01*
X116947529Y-41904939D01*
X116801003Y-41867833D01*
X116731684Y-41850279D01*
X116509803Y-41831895D01*
X116509797Y-41831895D01*
X116287915Y-41850279D01*
X116141383Y-41887386D01*
X116072071Y-41904939D01*
X116072069Y-41904939D01*
X116072064Y-41904941D01*
X115868172Y-41994377D01*
X115681788Y-42116148D01*
X115681778Y-42116155D01*
X115517966Y-42266954D01*
X115381215Y-42442653D01*
X115381213Y-42442654D01*
X115381213Y-42442656D01*
X115381211Y-42442659D01*
X115381209Y-42442663D01*
X115275241Y-42638472D01*
X115202947Y-42849060D01*
X115180055Y-42986242D01*
X115166300Y-43068673D01*
X102105300Y-43068673D01*
X102068652Y-42849060D01*
X101996358Y-42638473D01*
X101890387Y-42442657D01*
X101753632Y-42266954D01*
X101589823Y-42116157D01*
X101403427Y-41994378D01*
X101378628Y-41983500D01*
X101199535Y-41904942D01*
X101199531Y-41904941D01*
X101199529Y-41904940D01*
X101053003Y-41867834D01*
X100983684Y-41850280D01*
X100761803Y-41831896D01*
X100761797Y-41831896D01*
X100539915Y-41850280D01*
X100393383Y-41887387D01*
X100324071Y-41904940D01*
X100324069Y-41904940D01*
X100324064Y-41904942D01*
X100120172Y-41994378D01*
X99933788Y-42116149D01*
X99933778Y-42116156D01*
X99769966Y-42266955D01*
X99633215Y-42442654D01*
X99633209Y-42442664D01*
X99527241Y-42638473D01*
X99454947Y-42849061D01*
X99432055Y-42986243D01*
X99418300Y-43068674D01*
X98676300Y-43068674D01*
X98676300Y-41404083D01*
X98676416Y-41399934D01*
X98678384Y-41364882D01*
X98687653Y-41199828D01*
X99749800Y-41199828D01*
X99756202Y-41259375D01*
X99756203Y-41259380D01*
X99806445Y-41394087D01*
X99806446Y-41394088D01*
X99892611Y-41509188D01*
X100007711Y-41595353D01*
X100007712Y-41595354D01*
X100142419Y-41645596D01*
X100142424Y-41645597D01*
X100201971Y-41652000D01*
X100511800Y-41652000D01*
X101011800Y-41652000D01*
X101321629Y-41652000D01*
X101381175Y-41645597D01*
X101381180Y-41645596D01*
X101515887Y-41595354D01*
X101515888Y-41595353D01*
X101630988Y-41509188D01*
X101717153Y-41394088D01*
X101717154Y-41394087D01*
X101767396Y-41259380D01*
X101767397Y-41259375D01*
X101773800Y-41199828D01*
X101773800Y-40890000D01*
X101011800Y-40890000D01*
X101011800Y-41652000D01*
X100511800Y-41652000D01*
X100511800Y-40890000D01*
X99749800Y-40890000D01*
X99749800Y-41199828D01*
X98687653Y-41199828D01*
X98693971Y-41087315D01*
X98694901Y-41079076D01*
X98695131Y-41077728D01*
X98746996Y-40772469D01*
X98748842Y-40764383D01*
X98784677Y-40639996D01*
X101953696Y-40639996D01*
X101953696Y-40640003D01*
X101972080Y-40861884D01*
X101989634Y-40931201D01*
X102007228Y-41000679D01*
X102026742Y-41077734D01*
X102116178Y-41281626D01*
X102170571Y-41364882D01*
X102237956Y-41468022D01*
X102388754Y-41631832D01*
X102564456Y-41768587D01*
X102760272Y-41874557D01*
X102970859Y-41946852D01*
X103190473Y-41983499D01*
X103247195Y-41983499D01*
X103247199Y-41983500D01*
X103261917Y-41983500D01*
X114040334Y-41983500D01*
X114040336Y-41983499D01*
X114081127Y-41983499D01*
X114300741Y-41946852D01*
X114511328Y-41874557D01*
X114707144Y-41768587D01*
X114882846Y-41631832D01*
X115033644Y-41468022D01*
X115155422Y-41281626D01*
X115244860Y-41077728D01*
X115299518Y-40861891D01*
X115302669Y-40823873D01*
X115317904Y-40640003D01*
X115317904Y-40639996D01*
X115299519Y-40418115D01*
X115299518Y-40418112D01*
X115299518Y-40418109D01*
X115244860Y-40202272D01*
X115155422Y-39998374D01*
X115033644Y-39811978D01*
X114882846Y-39648168D01*
X114832808Y-39609222D01*
X114707146Y-39511414D01*
X114511329Y-39405443D01*
X114410428Y-39370803D01*
X114300741Y-39333148D01*
X114300738Y-39333147D01*
X114300737Y-39333147D01*
X114227711Y-39320961D01*
X114081127Y-39296501D01*
X114081122Y-39296500D01*
X114081120Y-39296500D01*
X114009683Y-39296500D01*
X103261917Y-39296500D01*
X103261916Y-39296500D01*
X103190479Y-39296500D01*
X103190476Y-39296500D01*
X103190473Y-39296501D01*
X103080535Y-39314846D01*
X102970862Y-39333147D01*
X102760270Y-39405443D01*
X102564453Y-39511414D01*
X102388752Y-39648169D01*
X102237953Y-39811981D01*
X102116178Y-39998373D01*
X102026742Y-40202265D01*
X101972080Y-40418115D01*
X101953696Y-40639996D01*
X98784677Y-40639996D01*
X98807702Y-40560073D01*
X98834946Y-40465506D01*
X98837676Y-40457704D01*
X98956705Y-40170344D01*
X98960293Y-40162892D01*
X99006011Y-40080171D01*
X99749800Y-40080171D01*
X99749800Y-40390000D01*
X100511800Y-40390000D01*
X101011800Y-40390000D01*
X101773800Y-40390000D01*
X101773800Y-40080171D01*
X101767397Y-40020624D01*
X101767396Y-40020619D01*
X101717154Y-39885912D01*
X101717153Y-39885911D01*
X101630988Y-39770811D01*
X101515888Y-39684646D01*
X101515887Y-39684645D01*
X101381180Y-39634403D01*
X101381175Y-39634402D01*
X101321629Y-39628000D01*
X101011800Y-39628000D01*
X101011800Y-40390000D01*
X100511800Y-40390000D01*
X100511800Y-39628000D01*
X100201971Y-39628000D01*
X100142424Y-39634402D01*
X100142419Y-39634403D01*
X100007712Y-39684645D01*
X100007711Y-39684646D01*
X99892611Y-39770811D01*
X99806446Y-39885911D01*
X99806445Y-39885912D01*
X99756203Y-40020619D01*
X99756202Y-40020624D01*
X99749800Y-40080171D01*
X99006011Y-40080171D01*
X99110751Y-39890659D01*
X99115143Y-39883669D01*
X99295141Y-39629986D01*
X99300291Y-39623528D01*
X99507556Y-39391597D01*
X99513397Y-39385756D01*
X99745328Y-39178491D01*
X99751786Y-39173341D01*
X100005469Y-38993343D01*
X100012459Y-38988951D01*
X100284692Y-38838493D01*
X100292144Y-38834905D01*
X100579504Y-38715876D01*
X100587306Y-38713146D01*
X100886186Y-38627041D01*
X100894269Y-38625196D01*
X101200884Y-38573100D01*
X101209115Y-38572171D01*
X101521734Y-38554615D01*
X101525883Y-38554500D01*
X101563682Y-38554500D01*
X115707918Y-38554500D01*
X115745717Y-38554500D01*
X115749865Y-38554615D01*
G37*
%TD.AperFunction*%
%TA.AperFunction,Conductor*%
G36*
X109841895Y-80625066D02*
G01*
X110022294Y-80805465D01*
X110043968Y-80857791D01*
X110043215Y-80868321D01*
X110035153Y-80924399D01*
X110055634Y-81066854D01*
X110055634Y-81066855D01*
X110055635Y-81066857D01*
X110088844Y-81139574D01*
X110115423Y-81197773D01*
X110209668Y-81306539D01*
X110209669Y-81306540D01*
X110209672Y-81306543D01*
X110274442Y-81348168D01*
X110324600Y-81380403D01*
X110330747Y-81384353D01*
X110437203Y-81415611D01*
X110468835Y-81424899D01*
X110468837Y-81424900D01*
X110585677Y-81424900D01*
X110638003Y-81446574D01*
X112693626Y-83502197D01*
X112715300Y-83554523D01*
X112715300Y-90761359D01*
X112730755Y-90878759D01*
X112730755Y-90878760D01*
X112730756Y-90878762D01*
X112732587Y-90883182D01*
X112732587Y-90939818D01*
X112692539Y-90979867D01*
X112664220Y-90985500D01*
X112274682Y-90985500D01*
X112222356Y-90963826D01*
X112200682Y-90911500D01*
X112203620Y-90890855D01*
X112222899Y-90824493D01*
X112225800Y-90787641D01*
X112225800Y-88525553D01*
X111175800Y-87475553D01*
X110125800Y-88525553D01*
X110125800Y-90787641D01*
X110128700Y-90824493D01*
X110147980Y-90890855D01*
X110141764Y-90947150D01*
X110097563Y-90982562D01*
X110076918Y-90985500D01*
X109687380Y-90985500D01*
X109635054Y-90963826D01*
X109613380Y-90911500D01*
X109619012Y-90883183D01*
X109620844Y-90878762D01*
X109636300Y-90761361D01*
X109636300Y-87818446D01*
X110125800Y-87818446D01*
X110822247Y-87122000D01*
X111529353Y-87122000D01*
X112225799Y-87818446D01*
X112225800Y-87818446D01*
X112225800Y-86425553D01*
X112225799Y-86425553D01*
X111529353Y-87122000D01*
X110822247Y-87122000D01*
X110125800Y-86425553D01*
X110125800Y-87818446D01*
X109636300Y-87818446D01*
X109636299Y-83482640D01*
X109632839Y-83456358D01*
X110125800Y-83456358D01*
X110125800Y-85718447D01*
X111175800Y-86768447D01*
X112225800Y-85718447D01*
X112225800Y-83456358D01*
X112222899Y-83419506D01*
X112177081Y-83261800D01*
X112093482Y-83120443D01*
X111977356Y-83004317D01*
X111835999Y-82920718D01*
X111678291Y-82874900D01*
X111678294Y-82874900D01*
X111641441Y-82872000D01*
X110710159Y-82872000D01*
X110673306Y-82874900D01*
X110515600Y-82920718D01*
X110374243Y-83004317D01*
X110258117Y-83120443D01*
X110174518Y-83261800D01*
X110128700Y-83419506D01*
X110125800Y-83456358D01*
X109632839Y-83456358D01*
X109620844Y-83365238D01*
X109576782Y-83258865D01*
X109572913Y-83229413D01*
X109571300Y-83229413D01*
X109571300Y-81366633D01*
X109592974Y-81314307D01*
X109598088Y-81310187D01*
X109597931Y-81310006D01*
X109601931Y-81306540D01*
X109628882Y-81275435D01*
X109696177Y-81197773D01*
X109755965Y-81066857D01*
X109776447Y-80924400D01*
X109755965Y-80781943D01*
X109722255Y-80708131D01*
X109720235Y-80651532D01*
X109758828Y-80610079D01*
X109815429Y-80608058D01*
X109841895Y-80625066D01*
G37*
%TD.AperFunction*%
%TA.AperFunction,Conductor*%
G36*
X113282803Y-78452574D02*
G01*
X113596826Y-78766597D01*
X113618500Y-78818923D01*
X113618500Y-78927853D01*
X113596826Y-78980179D01*
X113544500Y-79001853D01*
X113492174Y-78980179D01*
X113488574Y-78976312D01*
X113482671Y-78969500D01*
X113460540Y-78943959D01*
X113411931Y-78887860D01*
X113411929Y-78887859D01*
X113411928Y-78887857D01*
X113354982Y-78851260D01*
X113290854Y-78810047D01*
X113290850Y-78810046D01*
X113152764Y-78769500D01*
X113152761Y-78769500D01*
X113008839Y-78769500D01*
X113008836Y-78769500D01*
X112870749Y-78810046D01*
X112870745Y-78810047D01*
X112749671Y-78887857D01*
X112749668Y-78887860D01*
X112701059Y-78943959D01*
X112650412Y-78969311D01*
X112645133Y-78969500D01*
X106519762Y-78969500D01*
X106440638Y-78969500D01*
X106364212Y-78989978D01*
X106364211Y-78989978D01*
X106364209Y-78989979D01*
X106364207Y-78989980D01*
X106295692Y-79029537D01*
X105911289Y-79413940D01*
X105855340Y-79469888D01*
X105815779Y-79538409D01*
X105815777Y-79538414D01*
X105795300Y-79614835D01*
X105795300Y-80837766D01*
X105773626Y-80890092D01*
X105768515Y-80894211D01*
X105768672Y-80894392D01*
X105764668Y-80897860D01*
X105670423Y-81006626D01*
X105610634Y-81137545D01*
X105590153Y-81280000D01*
X105610634Y-81422454D01*
X105610634Y-81422455D01*
X105610635Y-81422457D01*
X105620206Y-81443414D01*
X105670423Y-81553373D01*
X105740570Y-81634328D01*
X105758455Y-81688067D01*
X105733103Y-81738713D01*
X105703798Y-81754265D01*
X105675012Y-81761978D01*
X105675011Y-81761978D01*
X105666488Y-81766900D01*
X105606488Y-81801540D01*
X104923002Y-82485026D01*
X104870676Y-82506700D01*
X104753836Y-82506700D01*
X104615749Y-82547246D01*
X104615745Y-82547247D01*
X104494675Y-82625055D01*
X104494668Y-82625060D01*
X104400423Y-82733826D01*
X104340634Y-82864745D01*
X104331573Y-82927768D01*
X104302672Y-82976476D01*
X104247794Y-82990483D01*
X104230008Y-82985603D01*
X104112564Y-82936956D01*
X104112561Y-82936955D01*
X104022475Y-82925095D01*
X103995161Y-82921500D01*
X103995159Y-82921500D01*
X103930300Y-82921500D01*
X103877974Y-82899826D01*
X103856300Y-82847500D01*
X103856300Y-81714522D01*
X103877973Y-81662197D01*
X104093596Y-81446573D01*
X104145922Y-81424900D01*
X104262763Y-81424900D01*
X104262764Y-81424899D01*
X104400853Y-81384353D01*
X104521928Y-81306543D01*
X104616177Y-81197773D01*
X104675965Y-81066857D01*
X104696447Y-80924400D01*
X104675965Y-80781943D01*
X104616177Y-80651027D01*
X104580696Y-80610079D01*
X104521931Y-80542260D01*
X104517928Y-80538792D01*
X104519841Y-80536583D01*
X104492983Y-80497859D01*
X104491300Y-80482166D01*
X104491300Y-80139723D01*
X104512974Y-80087397D01*
X106147797Y-78452574D01*
X106200123Y-78430900D01*
X113230477Y-78430900D01*
X113282803Y-78452574D01*
G37*
%TD.AperFunction*%
%TA.AperFunction,Conductor*%
G36*
X113592959Y-79556220D02*
G01*
X113618311Y-79606866D01*
X113618500Y-79612146D01*
X113618500Y-82158566D01*
X113596826Y-82210892D01*
X113591715Y-82215011D01*
X113591872Y-82215192D01*
X113587868Y-82218660D01*
X113493623Y-82327426D01*
X113433834Y-82458345D01*
X113413353Y-82600800D01*
X113433834Y-82743254D01*
X113467403Y-82816759D01*
X113469424Y-82873360D01*
X113430831Y-82914813D01*
X113400091Y-82921500D01*
X113276440Y-82921500D01*
X113159040Y-82936955D01*
X113159036Y-82936956D01*
X113076937Y-82970963D01*
X113020300Y-82970963D01*
X112996293Y-82954922D01*
X111062497Y-81021126D01*
X111040823Y-80968800D01*
X111041577Y-80958266D01*
X111046447Y-80924402D01*
X111046447Y-80924401D01*
X111044707Y-80912298D01*
X111025965Y-80781943D01*
X110966177Y-80651027D01*
X110930696Y-80610079D01*
X110871931Y-80542260D01*
X110871929Y-80542259D01*
X110871928Y-80542257D01*
X110802843Y-80497859D01*
X110750854Y-80464447D01*
X110750850Y-80464446D01*
X110612764Y-80423900D01*
X110612761Y-80423900D01*
X110521323Y-80423900D01*
X110468997Y-80402226D01*
X109988711Y-79921940D01*
X109966525Y-79909131D01*
X109920190Y-79882379D01*
X109920185Y-79882377D01*
X109843764Y-79861900D01*
X109843762Y-79861900D01*
X107874709Y-79861900D01*
X107874707Y-79861900D01*
X107798285Y-79882377D01*
X107798280Y-79882379D01*
X107751946Y-79909131D01*
X107729759Y-79921940D01*
X106820540Y-80831159D01*
X106780979Y-80899680D01*
X106780977Y-80899685D01*
X106760500Y-80976106D01*
X106760500Y-81328077D01*
X106738826Y-81380403D01*
X106738825Y-81380404D01*
X106718731Y-81400497D01*
X106666404Y-81422170D01*
X106614079Y-81400495D01*
X106592406Y-81348168D01*
X106593158Y-81337651D01*
X106601447Y-81280000D01*
X106580965Y-81137543D01*
X106521177Y-81006627D01*
X106488400Y-80968800D01*
X106426931Y-80897860D01*
X106422928Y-80894392D01*
X106424841Y-80892183D01*
X106397983Y-80853459D01*
X106396300Y-80837766D01*
X106396300Y-79809523D01*
X106417974Y-79757197D01*
X106582997Y-79592174D01*
X106635323Y-79570500D01*
X112645133Y-79570500D01*
X112697459Y-79592174D01*
X112701059Y-79596041D01*
X112749668Y-79652139D01*
X112749671Y-79652142D01*
X112749672Y-79652143D01*
X112870747Y-79729953D01*
X112963533Y-79757197D01*
X113008835Y-79770499D01*
X113008837Y-79770500D01*
X113008839Y-79770500D01*
X113152763Y-79770500D01*
X113152764Y-79770499D01*
X113290853Y-79729953D01*
X113411928Y-79652143D01*
X113488575Y-79563686D01*
X113539220Y-79538335D01*
X113592959Y-79556220D01*
G37*
%TD.AperFunction*%
%TD*%
M02*
